<svg width="62" height="62" viewBox="0 0 62 62" fill="none" xmlns="http://www.w3.org/2000/svg">
<circle cx="31" cy="26" r="24.5" fill="#E7F5FF"/>
<path d="M31 2.16667C36.7027 2.16667 42.2773 3.85771 47.0189 7.02596C51.7606 10.1942 55.4562 14.6974 57.6385 19.966C59.8209 25.2346 60.3918 31.032 59.2793 36.6251C58.1668 42.2182 55.4207 47.3558 51.3882 51.3882C47.3558 55.4207 42.2182 58.1668 36.6251 59.2793C31.032 60.3918 25.2346 59.8209 19.966 57.6385C14.6974 55.4562 10.1942 51.7606 7.02596 47.0189C3.85771 42.2773 2.16667 36.7027 2.16667 31" stroke="#053559" stroke-width="3.33333" stroke-linecap="round" stroke-linejoin="round"/>
<path d="M15.8828 33.5L20.7344 24.1484V24.1016H15V22.2266H23.0625V24.125L18.3594 33.5H15.8828ZM28.7812 33.6953C26.3281 33.6953 24.7031 32.2656 24.5625 30.3828L24.5547 30.2656H26.7344L26.75 30.3203C26.9141 31.1719 27.7031 31.8281 28.7891 31.8281C30.0234 31.8281 30.8906 30.9844 30.8906 29.7812V29.7656C30.8828 28.5781 30.0156 27.7422 28.7969 27.7422C28.2188 27.7422 27.7266 27.9141 27.3438 28.2188C27.1172 28.3906 26.9375 28.6094 26.8047 28.8438H24.75L25.2656 22.2266H32.4609V24.1016H27.1406L26.8672 27.2734H26.9141C27.3828 26.5156 28.3125 26.0547 29.4531 26.0547C31.5938 26.0547 33.1406 27.5938 33.1406 29.7188V29.7344C33.1406 32.0938 31.3594 33.6953 28.7812 33.6953ZM36.9297 28.0312C35.3047 28.0312 34.3125 26.8984 34.3125 25.0781V25.0703C34.3125 23.2578 35.3047 22.125 36.9297 22.125C38.5469 22.125 39.5391 23.2578 39.5391 25.0703V25.0781C39.5391 26.8984 38.5469 28.0312 36.9297 28.0312ZM38.0938 33.5H36.3516L43.4766 22.2266H45.2109L38.0938 33.5ZM36.9297 26.7344C37.5547 26.7344 37.8984 26.1484 37.8984 25.0781V25.0703C37.8984 24.0078 37.5547 23.4219 36.9297 23.4219C36.2969 23.4219 35.9453 24.0078 35.9453 25.0703V25.0781C35.9453 26.1484 36.2969 26.7344 36.9297 26.7344ZM44.6406 33.6016C43.0156 33.6016 42.0234 32.4688 42.0234 30.6484V30.6406C42.0234 28.8281 43.0156 27.6953 44.6406 27.6953C46.2578 27.6953 47.25 28.8281 47.25 30.6406V30.6484C47.25 32.4688 46.2578 33.6016 44.6406 33.6016ZM44.6406 32.3047C45.2656 32.3047 45.6094 31.7188 45.6094 30.6484V30.6406C45.6094 29.5781 45.2656 28.9922 44.6406 28.9922C44.0078 28.9922 43.6562 29.5781 43.6562 30.6406V30.6484C43.6562 31.7188 44.0078 32.3047 44.6406 32.3047Z" fill="#053559"/>
<path d="M17.4023 44.5938C15.8359 44.5938 14.8281 43.4531 14.8281 41.6797V41.6758C14.8281 39.9023 15.832 38.7695 17.4023 38.7695C18.5742 38.7695 19.4844 39.4805 19.6992 40.5469L19.707 40.5859H18.9961L18.9688 40.5C18.75 39.8164 18.1953 39.418 17.4023 39.418C16.2773 39.418 15.5508 40.3047 15.5508 41.6758V41.6797C15.5508 43.0508 16.2812 43.9453 17.4023 43.9453C18.1914 43.9453 18.7383 43.5547 18.9844 42.8125L18.9961 42.7773H19.707L19.6992 42.8164C19.4844 43.8945 18.582 44.5938 17.4023 44.5938ZM22.1172 44.5781C20.9883 44.5781 20.2344 43.7617 20.2344 42.4688V42.4609C20.2344 41.168 20.9922 40.3594 22.1133 40.3594C23.2344 40.3594 23.9961 41.1641 23.9961 42.4609V42.4688C23.9961 43.7656 23.2383 44.5781 22.1172 44.5781ZM22.1211 43.9766C22.8359 43.9766 23.3008 43.4219 23.3008 42.4688V42.4609C23.3008 41.5078 22.832 40.9609 22.1133 40.9609C21.4062 40.9609 20.9297 41.5117 20.9297 42.4609V42.4688C20.9297 43.4258 21.4023 43.9766 22.1211 43.9766ZM24.6836 44.5V40.4375H25.3633V41.0312H25.3789C25.5625 40.6289 25.9688 40.3594 26.4922 40.3594C27.0469 40.3594 27.457 40.6445 27.6328 41.1406H27.6484C27.875 40.6523 28.3516 40.3594 28.9219 40.3594C29.7266 40.3594 30.2461 40.8867 30.2461 41.6953V44.5H29.5664V41.8516C29.5664 41.293 29.2578 40.9609 28.7227 40.9609C28.1836 40.9609 27.8047 41.3633 27.8047 41.918V44.5H27.125V41.7773C27.125 41.2852 26.7969 40.9609 26.293 40.9609C25.7539 40.9609 25.3633 41.3867 25.3633 41.9531V44.5H24.6836ZM31.1133 45.8672V40.4375H31.793V41.125H31.8086C32.0625 40.6523 32.5156 40.3594 33.0977 40.3594C34.1367 40.3594 34.8242 41.1875 34.8242 42.4688V42.4727C34.8242 43.7539 34.1289 44.5781 33.1094 44.5781C32.5352 44.5781 32.0625 44.2891 31.8086 43.8203H31.793V45.8672H31.1133ZM32.9648 43.9766C33.6836 43.9766 34.1289 43.3984 34.1289 42.4727V42.4688C34.1289 41.5352 33.6836 40.9609 32.9648 40.9609C32.2773 40.9609 31.7891 41.5586 31.7891 42.4688V42.4727C31.7891 43.3789 32.2812 43.9766 32.9648 43.9766ZM35.5469 44.5V38.8633H36.2266V44.5H35.5469ZM38.8164 44.5781C37.6484 44.5781 36.9453 43.7617 36.9453 42.4844V42.4805C36.9453 41.2227 37.6641 40.3594 38.7734 40.3594C39.8828 40.3594 40.5586 41.1836 40.5586 42.4023V42.6523H37.6328C37.6484 43.4883 38.1094 43.9766 38.832 43.9766C39.3477 43.9766 39.7109 43.7188 39.8281 43.3711L39.8398 43.3359H40.5078L40.5 43.375C40.3672 44.0469 39.7031 44.5781 38.8164 44.5781ZM38.7695 40.9609C38.1797 40.9609 37.7188 41.3633 37.6445 42.1211H39.8672C39.8008 41.332 39.3633 40.9609 38.7695 40.9609ZM42.5664 44.5781C41.8203 44.5781 41.4531 44.2422 41.4531 43.4648V41H40.8594V40.4375H41.4531V39.3398H42.1562V40.4375H42.9297V41H42.1562V43.4609C42.1562 43.8945 42.3477 44.0156 42.7109 44.0156C42.793 44.0156 42.8711 44.0039 42.9297 44V44.5508C42.8438 44.5625 42.6992 44.5781 42.5664 44.5781ZM45.2148 44.5781C44.0469 44.5781 43.3438 43.7617 43.3438 42.4844V42.4805C43.3438 41.2227 44.0625 40.3594 45.1719 40.3594C46.2812 40.3594 46.957 41.1836 46.957 42.4023V42.6523H44.0312C44.0469 43.4883 44.5078 43.9766 45.2305 43.9766C45.7461 43.9766 46.1094 43.7188 46.2266 43.3711L46.2383 43.3359H46.9062L46.8984 43.375C46.7656 44.0469 46.1016 44.5781 45.2148 44.5781ZM45.168 40.9609C44.5781 40.9609 44.1172 41.3633 44.043 42.1211H46.2656C46.1992 41.332 45.7617 40.9609 45.168 40.9609Z" fill="#053559"/>
</svg>
