<svg width="32" height="32" viewBox="0 0 32 32" fill="none" xmlns="http://www.w3.org/2000/svg">
<path d="M16.0011 3.5C12.6064 3.5 12.1803 3.51488 10.847 3.5755C9.51625 3.6365 8.60787 3.84712 7.81313 4.15625C6.99088 4.4755 6.2935 4.90262 5.59875 5.59762C4.90338 6.2925 4.47625 6.98987 4.156 7.81175C3.846 8.60675 3.63512 9.5155 3.57525 10.8456C3.51562 12.179 3.5 12.6053 3.5 16.0001C3.5 19.395 3.515 19.8197 3.5755 21.153C3.63675 22.4837 3.84738 23.3921 4.15625 24.1869C4.47575 25.0091 4.90288 25.7065 5.59788 26.4013C6.2925 27.0966 6.98988 27.5247 7.8115 27.844C8.60687 28.1531 9.51537 28.3637 10.8459 28.4247C12.1792 28.4854 12.605 28.5002 15.9996 28.5002C19.3948 28.5002 19.8195 28.4854 21.1528 28.4247C22.4835 28.3637 23.3929 28.1531 24.1882 27.844C25.0101 27.5247 25.7065 27.0966 26.401 26.4013C27.0964 25.7065 27.5234 25.0091 27.8438 24.1873C28.151 23.3921 28.362 22.4835 28.4245 21.1532C28.4844 19.82 28.5 19.395 28.5 16.0001C28.5 12.6053 28.4844 12.1792 28.4245 10.8459C28.362 9.51512 28.151 8.60688 27.8438 7.81213C27.5234 6.98988 27.0964 6.2925 26.401 5.59762C25.7057 4.90237 25.0104 4.47525 24.1875 4.15637C23.3906 3.84712 22.4817 3.63638 21.151 3.5755C19.8176 3.51488 19.3931 3.5 15.9972 3.5H16.0011ZM14.8798 5.75262C15.2126 5.75213 15.584 5.75262 16.0011 5.75262C19.3388 5.75262 19.7342 5.76463 21.0522 5.8245C22.271 5.88025 22.9325 6.08388 23.3731 6.255C23.9565 6.4815 24.3724 6.75238 24.8096 7.19C25.2471 7.6275 25.5179 8.04412 25.745 8.6275C25.9161 9.0675 26.12 9.729 26.1755 10.9478C26.2354 12.2655 26.2484 12.6612 26.2484 15.9972C26.2484 19.3333 26.2354 19.7291 26.1755 21.0467C26.1198 22.2655 25.9161 22.927 25.745 23.3671C25.5185 23.9505 25.2471 24.3659 24.8096 24.8031C24.3721 25.2406 23.9568 25.5114 23.3731 25.738C22.933 25.9099 22.271 26.113 21.0522 26.1688C19.7345 26.2286 19.3388 26.2416 16.0011 26.2416C12.6634 26.2416 12.2677 26.2286 10.9501 26.1688C9.73137 26.1125 9.06987 25.9089 8.62887 25.7377C8.04562 25.5111 7.62887 25.2404 7.19137 24.8029C6.75387 24.3654 6.48312 23.9498 6.256 23.3661C6.08488 22.926 5.881 22.2645 5.8255 21.0457C5.76562 19.728 5.75362 19.3323 5.75362 15.9941C5.75362 12.6561 5.76562 12.2624 5.8255 10.9446C5.88125 9.72587 6.08488 9.06437 6.256 8.62375C6.48263 8.04037 6.75388 7.62375 7.1915 7.18625C7.629 6.74875 8.04562 6.47787 8.629 6.25087C9.06962 6.079 9.73137 5.87587 10.9501 5.81987C12.1032 5.76775 12.5501 5.75212 14.8798 5.7495V5.75262ZM22.6736 7.82812C21.8455 7.82812 21.1736 8.49938 21.1736 9.32763C21.1736 10.1558 21.8455 10.8276 22.6736 10.8276C23.5018 10.8276 24.1736 10.1558 24.1736 9.32763C24.1736 8.4995 23.5018 7.82762 22.6736 7.82762V7.82812ZM16.0011 9.58075C12.4561 9.58075 9.58187 12.455 9.58187 16.0001C9.58187 19.5452 12.4561 22.4181 16.0011 22.4181C19.5462 22.4181 22.4195 19.5452 22.4195 16.0001C22.4195 12.4551 19.546 9.58075 16.0009 9.58075H16.0011ZM16.0011 11.8334C18.3022 11.8334 20.1679 13.6988 20.1679 16.0001C20.1679 18.3013 18.3022 20.1669 16.0011 20.1669C13.6999 20.1669 11.8345 18.3013 11.8345 16.0001C11.8345 13.6988 13.6999 11.8334 16.0011 11.8334Z" fill="white"/>
<path d="M17.3707 2.66802C18.3436 2.66429 19.3166 2.67407 20.2893 2.69736L20.548 2.70669C20.8467 2.71736 21.1413 2.73069 21.4973 2.74669C22.916 2.81336 23.884 3.03736 24.7333 3.36669C25.6133 3.70536 26.3547 4.16402 27.096 4.90536C27.7738 5.5715 28.2984 6.37728 28.6333 7.26669C28.9627 8.11602 29.1867 9.08536 29.2533 10.504C29.2693 10.8587 29.2827 11.1547 29.2933 11.4534L29.3013 11.712C29.325 12.6843 29.3352 13.6568 29.332 14.6294L29.3333 15.624V17.3707C29.3366 18.3437 29.3264 19.3167 29.3027 20.2894L29.2947 20.548C29.284 20.8467 29.2707 21.1414 29.2547 21.4974C29.188 22.916 28.9613 23.884 28.6333 24.7334C28.2995 25.6237 27.7748 26.4302 27.096 27.096C26.4293 27.7738 25.6231 28.2984 24.7333 28.6334C23.884 28.9627 22.916 29.1867 21.4973 29.2534C21.1413 29.2694 20.8467 29.2827 20.548 29.2934L20.2893 29.3014C19.3166 29.3251 18.3436 29.3353 17.3707 29.332L16.376 29.3334H14.6307C13.6577 29.3366 12.6847 29.3264 11.712 29.3027L11.4533 29.2947C11.1368 29.2832 10.8204 29.2699 10.504 29.2547C9.08533 29.188 8.11733 28.9614 7.26666 28.6334C6.37691 28.2992 5.57098 27.7745 4.90533 27.096C4.22672 26.4297 3.70163 25.6234 3.36666 24.7334C3.03733 23.884 2.81333 22.916 2.74666 21.4974C2.73181 21.181 2.71848 20.8645 2.70666 20.548L2.7 20.2894C2.67541 19.3167 2.6643 18.3437 2.66666 17.3707V14.6294C2.66294 13.6568 2.67272 12.6843 2.696 11.712L2.70533 11.4534C2.716 11.1547 2.72933 10.8587 2.74533 10.504C2.812 9.08402 3.036 8.11736 3.36533 7.26669C3.70049 6.37685 4.22661 5.57128 4.90666 4.90669C5.57186 4.22769 6.37728 3.70212 7.26666 3.36669C8.11733 3.03736 9.08399 2.81336 10.504 2.74669L11.4533 2.70669L11.712 2.70002C12.6842 2.67545 13.6568 2.66434 14.6293 2.66669L17.3707 2.66802ZM16 9.33469C15.1167 9.3222 14.2397 9.48539 13.42 9.81478C12.6003 10.1442 11.8542 10.6332 11.2251 11.2534C10.5961 11.8737 10.0965 12.6127 9.75558 13.4277C9.41463 14.2427 9.23905 15.1173 9.23905 16.0007C9.23905 16.8841 9.41463 17.7587 9.75558 18.5737C10.0965 19.3886 10.5961 20.1277 11.2251 20.748C11.8542 21.3682 12.6003 21.8572 13.42 22.1866C14.2397 22.516 15.1167 22.6792 16 22.6667C17.7681 22.6667 19.4638 21.9643 20.714 20.7141C21.9643 19.4638 22.6667 17.7681 22.6667 16C22.6667 14.2319 21.9643 12.5362 20.714 11.286C19.4638 10.0357 17.7681 9.33469 16 9.33469ZM16 12.0014C16.5313 11.9916 17.0593 12.0878 17.5531 12.2843C18.0468 12.4808 18.4964 12.7738 18.8757 13.1461C19.255 13.5184 19.5562 13.9625 19.7619 14.4525C19.9676 14.9425 20.0736 15.4686 20.0737 16C20.0738 16.5314 19.968 17.0576 19.7624 17.5476C19.5569 18.0377 19.2558 18.4819 18.8766 18.8543C18.4975 19.2267 18.048 19.5199 17.5543 19.7166C17.0606 19.9133 16.5327 20.0096 16.0013 20C14.9405 20 13.923 19.5786 13.1729 18.8285C12.4228 18.0783 12.0013 17.0609 12.0013 16C12.0013 14.9392 12.4228 13.9217 13.1729 13.1716C13.923 12.4214 14.9405 12 16.0013 12L16 12.0014ZM23 7.33469C22.5699 7.35191 22.1631 7.53489 21.8648 7.84532C21.5665 8.15575 21.4 8.56954 21.4 9.00002C21.4 9.43051 21.5665 9.8443 21.8648 10.1547C22.1631 10.4652 22.5699 10.6481 23 10.6654C23.442 10.6654 23.8659 10.4898 24.1785 10.1772C24.4911 9.86464 24.6667 9.44072 24.6667 8.99869C24.6667 8.55666 24.4911 8.13274 24.1785 7.82018C23.8659 7.50762 23.442 7.33202 23 7.33202V7.33469Z" fill="#BFBFBF"/>
</svg>
