<svg width="32" height="32" viewBox="0 0 32 32" fill="none" xmlns="http://www.w3.org/2000/svg">
<path d="M22.1867 7.76C21.2752 6.7195 20.773 5.38324 20.7733 4H16.6533V20.5333C16.6216 21.428 16.2438 22.2755 15.5997 22.8973C14.9556 23.519 14.0953 23.8665 13.2 23.8667C11.3067 23.8667 9.73334 22.32 9.73334 20.4C9.73334 18.1067 11.9467 16.3867 14.2267 17.0933V12.88C9.62667 12.2667 5.60001 15.84 5.60001 20.4C5.60001 24.84 9.28001 28 13.1867 28C17.3733 28 20.7733 24.6 20.7733 20.4V12.0133C22.444 13.2131 24.4498 13.8569 26.5067 13.8533V9.73333C26.5067 9.73333 24 9.85333 22.1867 7.76Z" fill="#BFBFBF"/>
</svg>
