<svg width="32" height="32" viewBox="0 0 32 32" fill="none" xmlns="http://www.w3.org/2000/svg">
<path d="M30.6667 12.9473C30.7326 11.0388 30.3153 9.14461 29.4534 7.44059C28.8686 6.74139 28.057 6.26954 27.16 6.10726C23.4501 5.77062 19.7247 5.63265 16 5.69392C12.2889 5.62987 8.57698 5.76339 4.88003 6.09392C4.14912 6.22688 3.47272 6.56971 2.93336 7.08059C1.73336 8.18726 1.60003 10.0806 1.4667 11.6806C1.27325 14.5573 1.27325 17.4438 1.4667 20.3206C1.50527 21.2211 1.63936 22.115 1.8667 22.9873C2.02746 23.6607 2.35273 24.2837 2.81336 24.8006C3.35639 25.3385 4.04854 25.7009 4.80003 25.8406C7.67459 26.1954 10.571 26.3425 13.4667 26.2806C18.1334 26.3473 22.2267 26.2806 27.0667 25.9073C27.8366 25.7761 28.5483 25.4133 29.1067 24.8673C29.48 24.4938 29.7588 24.0367 29.92 23.5339C30.3969 22.0707 30.6311 20.5394 30.6134 19.0006C30.6667 18.2539 30.6667 13.7473 30.6667 12.9473ZM12.9867 19.8006V11.5473L20.88 15.6939C18.6667 16.9206 15.7467 18.3073 12.9867 19.8006Z" fill="#BFBFBF"/>
</svg>
